# xmcd
#
# Track frame offsets:
#	150
#	19413
#	39514
#	61882
#	74898
#	92785
#	113079
#	131703
#	144418
#	158318
#
# Disc length: 2377 seconds
#
# Revision: 1
# Processed by: cddbd v1.5.2PL0 Copyright (c) Steve Scherf et al.
# Submitted via: audiograbber 1.83.01
#
DISCID=8909470a
DTITLE=The BO-KEYS - Heartaches by the Number
DYEAR=1900
DGENRE=
TTITLE0=Hearttaches by the number
TTITLE1=Set me free
TTITLE2=I`m so lonesome I could cry
TTITLE3=The longer you wait
TTITLE4=I threw it all away
TTITLE5=Leraned my lesson in love
TTITLE6=Don`t take her
TTITLE7=I hope you find what you`re looking for
TTITLE8=Wasted days an wasted nights
TTITLE9=Last date
EXTD=
EXTT0=
EXTT1=
EXTT2=
EXTT3=
EXTT4=
EXTT5=
EXTT6=
EXTT7=
EXTT8=
EXTT9=
PLAYORDER=
